<mxfile host="www.draw.io" modified="2019-11-30T14:47:06.492Z" agent="Mozilla/5.0 (Windows NT 10.0; Win64; x64) AppleWebKit/537.36 (KHTML, like Gecko) Chrome/78.0.3904.108 Safari/537.36" etag="4fsrJjWTMsVr0HWm2igh" version="12.3.3" type="github" pages="1">
  <diagram id="vo0KS4TbfWdURL4oZg_J" name="Page-1">
    <mxGraphModel dx="686" dy="770" grid="1" gridSize="10" guides="1" tooltips="1" connect="1" arrows="1" fold="1" page="1" pageScale="1" pageWidth="827" pageHeight="1169" math="0" shadow="0">
      <root>
        <mxCell id="0"/>
        <mxCell id="1" parent="0"/>
        <mxCell id="Y-PyhNSFOouAp9lyt1t5-3" value="" style="edgeStyle=orthogonalEdgeStyle;rounded=0;orthogonalLoop=1;jettySize=auto;html=1;" edge="1" parent="1" source="Y-PyhNSFOouAp9lyt1t5-1" target="Y-PyhNSFOouAp9lyt1t5-2">
          <mxGeometry relative="1" as="geometry"/>
        </mxCell>
        <mxCell id="Y-PyhNSFOouAp9lyt1t5-1" value="quicksort(tablica, low, high)" style="rounded=1;whiteSpace=wrap;html=1;" vertex="1" parent="1">
          <mxGeometry x="240" y="30" width="160" height="60" as="geometry"/>
        </mxCell>
        <mxCell id="Y-PyhNSFOouAp9lyt1t5-7" value="" style="edgeStyle=orthogonalEdgeStyle;rounded=0;orthogonalLoop=1;jettySize=auto;html=1;" edge="1" parent="1" source="Y-PyhNSFOouAp9lyt1t5-2" target="Y-PyhNSFOouAp9lyt1t5-6">
          <mxGeometry relative="1" as="geometry"/>
        </mxCell>
        <mxCell id="Y-PyhNSFOouAp9lyt1t5-9" style="edgeStyle=orthogonalEdgeStyle;rounded=0;orthogonalLoop=1;jettySize=auto;html=1;entryX=0;entryY=0.5;entryDx=0;entryDy=0;" edge="1" parent="1" source="Y-PyhNSFOouAp9lyt1t5-2" target="Y-PyhNSFOouAp9lyt1t5-8">
          <mxGeometry relative="1" as="geometry">
            <mxPoint x="190" y="440" as="targetPoint"/>
            <Array as="points">
              <mxPoint x="190" y="150"/>
              <mxPoint x="190" y="390"/>
            </Array>
          </mxGeometry>
        </mxCell>
        <mxCell id="Y-PyhNSFOouAp9lyt1t5-2" value="low &amp;lt; high" style="rhombus;whiteSpace=wrap;html=1;" vertex="1" parent="1">
          <mxGeometry x="280" y="110" width="80" height="80" as="geometry"/>
        </mxCell>
        <mxCell id="Y-PyhNSFOouAp9lyt1t5-4" value="TAK" style="text;html=1;strokeColor=none;fillColor=none;align=center;verticalAlign=middle;whiteSpace=wrap;rounded=0;" vertex="1" parent="1">
          <mxGeometry x="320" y="200" width="40" height="20" as="geometry"/>
        </mxCell>
        <mxCell id="Y-PyhNSFOouAp9lyt1t5-10" style="edgeStyle=orthogonalEdgeStyle;rounded=0;orthogonalLoop=1;jettySize=auto;html=1;entryX=0.5;entryY=0;entryDx=0;entryDy=0;" edge="1" parent="1" source="Y-PyhNSFOouAp9lyt1t5-6" target="Y-PyhNSFOouAp9lyt1t5-8">
          <mxGeometry relative="1" as="geometry"/>
        </mxCell>
        <mxCell id="Y-PyhNSFOouAp9lyt1t5-6" value="mid = partition(tablica,low,high)&lt;br&gt;quicksort(tablica,low,mid-1)&lt;br&gt;quicksort(tablica,mid+1,high)" style="rounded=0;whiteSpace=wrap;html=1;" vertex="1" parent="1">
          <mxGeometry x="208.5" y="220" width="223" height="110" as="geometry"/>
        </mxCell>
        <mxCell id="Y-PyhNSFOouAp9lyt1t5-8" value="KONIEC" style="rounded=1;whiteSpace=wrap;html=1;" vertex="1" parent="1">
          <mxGeometry x="260" y="360" width="120" height="60" as="geometry"/>
        </mxCell>
      </root>
    </mxGraphModel>
  </diagram>
</mxfile>
